<svg xmlns="http://www.w3.org/2000/svg" width="132" height="30" viewBox="0 0 132 30"><defs><style>.a{fill:none;stroke:#6a4aef;}.b{fill:#6a4aef;}</style></defs><g transform="translate(-36 -111)"><line class="a" x2="74" transform="translate(64.5 125.5)"/><g transform="translate(139 112)"><path class="b" d="M14.5,0A14.5,14.5,0,1,0,29,14.5,14.517,14.517,0,0,0,14.5,0Zm8.1,10.684-9.267,9.194a1.426,1.426,0,0,1-2,.036l-4.906-4.47a1.474,1.474,0,0,1-.109-2.035,1.438,1.438,0,0,1,2.035-.073L12.247,16.9l8.286-8.286A1.465,1.465,0,1,1,22.6,10.684Z"/></g><g transform="translate(36 111)"><path class="b" d="M14.5,0A14.5,14.5,0,1,0,29,14.5,14.517,14.517,0,0,0,14.5,0Zm8.1,10.684-9.267,9.194a1.426,1.426,0,0,1-2,.036l-4.906-4.47a1.474,1.474,0,0,1-.109-2.035,1.438,1.438,0,0,1,2.035-.073L12.247,16.9l8.286-8.286A1.465,1.465,0,1,1,22.6,10.684Z"/></g></g></svg>